<?xml version="1.0" standalone="no"?>
<!DOCTYPE svg PUBLIC "-//W3C//DTD SVG 20010904//EN"
 "http://www.w3.org/TR/2001/REC-SVG-20010904/DTD/svg10.dtd">
<svg version="1.0" xmlns="http://www.w3.org/2000/svg"
 width="200.000000pt" height="200.000000pt" viewBox="0 0 200.000000 200.000000"
 preserveAspectRatio="xMidYMid meet">
<metadata>
Created by potrace 1.11, written by Peter Selinger 2001-2013
</metadata>
<g transform="translate(0.000000,200.000000) scale(0.100000,-0.100000)"
fill="#000000" stroke="none">
<path d="M534 1420 c-107 -54 -112 -211 -7 -272 109 -65 246 22 236 149 -4 45
-36 94 -78 118 -51 30 -97 32 -151 5z"/>
<path d="M1322 1424 c-148 -75 -97 -297 67 -297 198 -1 209 294 12 310 -30 2
-58 -2 -79 -13z"/>
<path d="M536 827 c-24 -24 -28 -33 -23 -64 11 -64 59 -146 121 -208 108 -107
237 -157 390 -150 136 6 241 50 339 144 77 74 137 199 123 256 -11 44 -39 47
-493 49 l-428 1 -29 -28z"/>
</g>
</svg>
